<svg width="420" height="320" viewBox="0 0 420 320" fill="none" xmlns="http://www.w3.org/2000/svg">
  <defs>
    <linearGradient id="petal" x1="120" y1="70" x2="300" y2="210" gradientUnits="userSpaceOnUse">
      <stop stop-color="#FFB7E8"/><stop offset=".48" stop-color="#F29EDB"/><stop offset="1" stop-color="#8E6AB8"/>
    </linearGradient>
    <linearGradient id="cream" x1="180" y1="20" x2="240" y2="120"><stop stop-color="#FFF1F7"/><stop offset="1" stop-color="#F7D6A3"/></linearGradient>
    <filter id="glow" x="-20%" y="-20%" width="140%" height="140%"><feGaussianBlur stdDeviation="3" result="b"/><feMerge><feMergeNode in="b"/><feMergeNode in="SourceGraphic"/></feMerge></filter>
  </defs>
  <path d="M235 26c-38 16-55 62-36 98 9 17 24 29 42 35-10-12-15-28-13-44 3-28 22-50 47-58-16-4-29-15-40-31z" fill="url(#cream)"/>
  <g filter="url(#glow)">
    <path d="M210 87c43 42 40 90 0 121-40-31-43-79 0-121z" fill="url(#petal)"/>
    <path d="M159 112c49 22 67 62 48 96-43-8-67-45-48-96z" fill="url(#petal)" opacity=".93"/>
    <path d="M261 112c-49 22-67 62-48 96 43-8 67-45 48-96z" fill="url(#petal)" opacity=".93"/>
    <path d="M103 139c54 5 89 33 84 73-43 8-79-16-84-73z" fill="url(#petal)" opacity=".82"/>
    <path d="M317 139c-54 5-89 33-84 73 43 8 79-16 84-73z" fill="url(#petal)" opacity=".82"/>
  </g>
  <path d="M93 221c78 11 156 11 234 0" stroke="#E96CCB" stroke-width="4" stroke-linecap="round"/>
  <text x="210" y="273" text-anchor="middle" font-family="Georgia, serif" font-size="58" font-style="italic" fill="#E9D5FF">Bloom</text>
  <text x="210" y="304" text-anchor="middle" font-family="Inter, Arial" font-size="16" font-weight="700" letter-spacing="3" fill="#F29EDB">PCOS WELLNESS TRACKER</text>
  <circle cx="174" cy="80" r="5" fill="#FFF1F7"/><circle cx="252" cy="77" r="4" fill="#FFF1F7"/><path d="M221 51l6 12 12 6-12 6-6 12-6-12-12-6 12-6 6-12z" fill="#FFF1F7"/>
</svg>
